Coordinates
version=1
nRows=7
nColumns=40
inDegrees=yes

Units are S.I. units (second, meters, Newtons, ...)
Angles are in degrees.

endheader
time	pelvis_tilt	pelvis_list	pelvis_rotation	pelvis_tx	pelvis_ty	pelvis_tz	hip_flexion_r	hip_adduction_r	hip_rotation_r	knee_angle_r	knee_angle_r_beta	ankle_angle_r	subtalar_angle_r	mtp_angle_r	hip_flexion_l	hip_adduction_l	hip_rotation_l	knee_angle_l	knee_angle_l_beta	ankle_angle_l	subtalar_angle_l	mtp_angle_l	lumbar_extension	lumbar_bending	lumbar_rotation	arm_flex_r	arm_add_r	arm_rot_r	elbow_flex_r	pro_sup_r	wrist_flex_r	wrist_dev_r	arm_flex_l	arm_add_l	arm_rot_l	elbow_flex_l	pro_sup_l	wrist_flex_l	wrist_dev_l
     36.72750000	     -8.64533907	     -6.70521030	      3.06914582	      1.06047324	      0.92570745	      0.48315035	     16.06679435	      4.13471862	    -16.13685643	     13.20690681	     13.20690681	      7.85693956	     -2.98734383	     -3.48997148	     43.95519081	    -11.20667902	      4.30267232	     65.67265583	     65.67265583	      7.36522458	    -19.36926189	     18.88261908	    -11.98805174	      4.27031405	      1.26423709	     18.60914690	    -20.52863132	      0.36204841	     88.46667399	     44.47601627	      0.00000000	      0.00000000	      7.28911666	     -8.50976921	     -3.70002415	     29.33882487	     46.62076840	      0.00000000	      0.00000000
     36.73957143	     -8.86335000	     -6.56915000	      3.34347346	      1.05859673	      0.92570628	      0.48289472	     15.81726382	      3.98908918	    -16.16173959	     13.02857151	     13.02857151	      8.10254711	     -3.12476037	     -3.45033517	     44.96171902	    -10.67230977	      4.22919833	     63.28133737	     63.28133737	      8.16348334	    -19.35583222	     19.12423482	    -12.06752463	      4.04212682	      1.00949686	     20.47336705	    -20.24679167	      0.16182821	     90.73144736	     44.43249198	      0.00000000	      0.00000000	      6.86490693	     -8.36883315	     -3.51820675	     27.37600946	     46.58476527	      0.00000000	      0.00000000
     36.75164286	     -9.12119784	     -6.49967567	      3.57599941	      1.05679921	      0.92558035	      0.48244057	     15.62953647	      3.88541003	    -16.24926806	     12.88872394	     12.88872394	      8.28691537	     -3.22619510	     -3.48307051	     45.81197389	    -10.10051177	      4.33033644	     60.59892985	     60.59892985	      8.83592684	    -19.28350894	     19.16044821	    -12.01826395	      3.87106135	      1.34778569	     22.07769887	    -20.44371214	     -0.14502354	     91.65597754	     44.42191651	      0.00000000	      0.00000000	      6.27869761	     -8.08879071	     -3.45163775	     26.82830166	     46.56398989	      0.00000000	      0.00000000
     36.76371429	     -9.29667227	     -6.26116264	      3.81474326	      1.05515025	      0.92554217	      0.48166332	     15.29037195	      3.59228258	    -16.31845845	     12.69077053	     12.69077053	      8.58728946	     -3.14906886	     -3.53224345	     46.29867669	     -9.25594315	      4.55398010	     57.64726567	     57.64726567	      9.27124619	    -19.19547037	     18.93352665	    -12.19240786	      3.61133310	      0.72451173	     24.09257529	    -19.62919041	     -0.18803382	     94.62274719	     44.34927912	      0.00000000	      0.00000000	      5.69163853	     -8.07125239	     -3.21485929	     24.93975319	     46.51900398	      0.00000000	      0.00000000
     36.77578571	     -9.53546041	     -6.15041244	      3.99412902	      1.05364412	      0.92532942	      0.48072643	     15.03960087	      3.40400418	    -16.50562535	     12.54646796	     12.54646796	      8.89532665	     -2.92673618	     -3.62445865	     46.68090128	     -8.48664737	      5.01827229	     54.52287186	     54.52287186	      9.44573697	    -19.01745249	     18.28273888	    -12.17911897	      3.52087471	      0.90156412	     25.64830052	    -19.55700040	     -0.33584220	     96.85733447	     44.30769012	      0.00000000	      0.00000000	      5.33802981	     -7.83039124	     -2.97536942	     23.50759226	     46.47367119	      0.00000000	      0.00000000
     36.78785714	     -9.77106836	     -6.06675381	      4.09126495	      1.05233251	      0.92501836	      0.47972415	     14.79244790	      3.24547113	    -16.64886544	     12.43059648	     12.43059648	      9.16365081	     -2.64318617	     -3.68751249	     46.84892680	     -7.75638924	      5.67549341	     51.30359617	     51.30359617	      9.56006245	    -18.70429946	     17.37775592	    -12.16980513	      3.38553879	      1.17397287	     27.13984826	    -19.45848461	     -0.59552748	     98.75376262	     44.28135119	      0.00000000	      0.00000000	      4.82873818	     -7.61864406	     -2.79463279	     22.71157542	     46.42898318	      0.00000000	      0.00000000
     36.79992857	    -10.00656472	     -6.00216513	      4.11701943	      1.05124874	      0.92463709	      0.47863725	     14.54294797	      3.12825811	    -16.65268977	     12.32913107	     12.32913107	      9.44486501	     -2.54347288	     -3.77383030	     46.85256520	     -7.11929836	      6.39852753	     48.08267567	     48.08267567	      9.91272709	    -18.13644818	     17.17942920	    -12.06943115	      3.28098478	      1.55630807	     28.69678333	    -19.44068588	     -0.81881363	     99.83631006	     44.26663686	      0.00000000	      0.00000000	      4.20173864	     -7.34848343	     -2.73710821	     22.44915267	     46.40346780	      0.00000000	      0.00000000
